<svg width="18" height="18" viewBox="0 0 18 18" fill="none" xmlns="http://www.w3.org/2000/svg">
<path fill-rule="evenodd" clip-rule="evenodd" d="M5.25 6C5.25 5.58579 5.58579 5.25 6 5.25H12C12.4142 5.25 12.75 5.58579 12.75 6C12.75 6.41421 12.4142 6.75 12 6.75H6C5.58579 6.75 5.25 6.41421 5.25 6ZM6 9.75H12C12.4142 9.75 12.75 9.41421 12.75 9C12.75 8.58579 12.4142 8.25 12 8.25H6C5.58579 8.25 5.25 8.58579 5.25 9C5.25 9.41421 5.58579 9.75 6 9.75ZM9 11.25H6C5.58579 11.25 5.25 11.5858 5.25 12C5.25 12.4142 5.58579 12.75 6 12.75H9C9.41421 12.75 9.75 12.4142 9.75 12C9.75 11.5858 9.41421 11.25 9 11.25ZM18 1.5V11.6897C18.0013 12.0877 17.8429 12.4697 17.5603 12.75L12.75 17.5603C12.4697 17.8429 12.0877 18.0013 11.6897 18H1.5C0.671573 18 0 17.3284 0 16.5V1.5C0 0.671573 0.671573 0 1.5 0H16.5C17.3284 0 18 0.671573 18 1.5ZM1.5 16.5H11.25V12C11.25 11.5858 11.5858 11.25 12 11.25H16.5V1.5H1.5V16.5ZM12.75 12.75V15.4406L15.4397 12.75H12.75Z" fill="#171212"/>
</svg>
