<svg width="18" height="19" viewBox="0 0 18 19" fill="none" xmlns="http://www.w3.org/2000/svg">
<path fill-rule="evenodd" clip-rule="evenodd" d="M17.5153 7.47685L10.0153 0.400601C10.0116 0.397402 10.0082 0.393956 10.005 0.390288C9.43281 -0.130086 8.55876 -0.130086 7.98656 0.390288L7.97625 0.400601L0.484688 7.47685C0.17573 7.76095 -6.38962e-05 8.1615 0 8.58123V17.2484C0 18.0768 0.671573 18.7484 1.5 18.7484H6C6.82843 18.7484 7.5 18.0768 7.5 17.2484V12.7484H10.5V17.2484C10.5 18.0768 11.1716 18.7484 12 18.7484H16.5C17.3284 18.7484 18 18.0768 18 17.2484V8.58123C18.0001 8.1615 17.8243 7.76095 17.5153 7.47685ZM16.5 17.2484H12V12.7484C12 11.92 11.3284 11.2484 10.5 11.2484H7.5C6.67157 11.2484 6 11.92 6 12.7484V17.2484H1.5V8.58123L1.51031 8.57185L9 1.49841L16.4906 8.56998L16.5009 8.57935L16.5 17.2484Z" fill="#8A6170"/>
</svg>
