<svg width="20" height="20" viewBox="0 0 20 20" fill="none" xmlns="http://www.w3.org/2000/svg">
<path fill-rule="evenodd" clip-rule="evenodd" d="M19.7748 18.6875L14.9656 13.8793C17.8613 10.4028 17.5104 5.26368 14.1691 2.21306C10.8278 -0.83756 5.67803 -0.720522 2.47877 2.47874C-0.720499 5.67801 -0.837536 10.8278 2.21308 14.1691C5.2637 17.5104 10.4028 17.8613 13.8793 14.9656L18.6875 19.7748C18.9878 20.075 19.4746 20.075 19.7748 19.7748C20.0751 19.4745 20.0751 18.9877 19.7748 18.6875ZM1.55805 8.4736C1.55805 4.65423 4.65426 1.55803 8.47362 1.55803C12.293 1.55803 15.3892 4.65423 15.3892 8.4736C15.3892 12.293 12.293 15.3892 8.47362 15.3892C4.65601 15.3849 1.56229 12.2912 1.55805 8.4736Z" fill="#8A6170"/>
</svg>
