<svg width="18" height="15" viewBox="0 0 18 15" fill="none" xmlns="http://www.w3.org/2000/svg">
<path fill-rule="evenodd" clip-rule="evenodd" d="M17.9996 7.5C17.9996 7.91419 17.6638 8.24996 17.2497 8.24996H2.56078L8.03079 13.719C8.32383 14.0121 8.32383 14.4872 8.03079 14.7802C7.73775 15.0733 7.26264 15.0733 6.9696 14.7802L0.219973 8.0306C0.0791482 7.88993 2.02645e-05 7.69905 2.02645e-05 7.5C2.02645e-05 7.30095 0.0791482 7.11007 0.219973 6.9694L6.9696 0.219779C7.26264 -0.073261 7.73775 -0.073261 8.03079 0.219779C8.32383 0.512819 8.32383 0.98793 8.03079 1.28097L2.56078 6.75004H17.2497C17.6638 6.75004 17.9996 7.08581 17.9996 7.5Z" fill="#171212"/>
</svg>
