<svg width="800" height="600" viewBox="0 0 800 600" xmlns="http://www.w3.org/2000/svg">
  <!-- 背景 -->
  <rect width="800" height="600" fill="#FFFCF8" />
  
  <!-- 洋甘菊群組 -->
  <g transform="translate(400, 300)">
    <!-- 主要洋甘菊 -->
    <g transform="translate(0, -20) scale(1.2)">
      <!-- 花瓣 -->
      <g>
        <path d="M0,0 L20,-40 L0,-45 L-20,-40 Z" fill="#FFFFFF" transform="rotate(0)" />
        <path d="M0,0 L20,-40 L0,-45 L-20,-40 Z" fill="#FFFFFF" transform="rotate(30)" />
        <path d="M0,0 L20,-40 L0,-45 L-20,-40 Z" fill="#FFFFFF" transform="rotate(60)" />
        <path d="M0,0 L20,-40 L0,-45 L-20,-40 Z" fill="#FFFFFF" transform="rotate(90)" />
        <path d="M0,0 L20,-40 L0,-45 L-20,-40 Z" fill="#FFFFFF" transform="rotate(120)" />
        <path d="M0,0 L20,-40 L0,-45 L-20,-40 Z" fill="#FFFFFF" transform="rotate(150)" />
        <path d="M0,0 L20,-40 L0,-45 L-20,-40 Z" fill="#FFFFFF" transform="rotate(180)" />
        <path d="M0,0 L20,-40 L0,-45 L-20,-40 Z" fill="#FFFFFF" transform="rotate(210)" />
        <path d="M0,0 L20,-40 L0,-45 L-20,-40 Z" fill="#FFFFFF" transform="rotate(240)" />
        <path d="M0,0 L20,-40 L0,-45 L-20,-40 Z" fill="#FFFFFF" transform="rotate(270)" />
        <path d="M0,0 L20,-40 L0,-45 L-20,-40 Z" fill="#FFFFFF" transform="rotate(300)" />
        <path d="M0,0 L20,-40 L0,-45 L-20,-40 Z" fill="#FFFFFF" transform="rotate(330)" />
      </g>
      
      <!-- 花心 -->
      <circle cx="0" cy="0" r="20" fill="#FFFFAA" />
      <circle cx="0" cy="0" r="15" fill="#FFFF88" />
    </g>
    
    <!-- 左側洋甘菊 -->
    <g transform="translate(-120, 30) scale(0.9)">
      <!-- 花瓣 -->
      <g>
        <path d="M0,0 L20,-40 L0,-45 L-20,-40 Z" fill="#FFFFFF" transform="rotate(0)" />
        <path d="M0,0 L20,-40 L0,-45 L-20,-40 Z" fill="#FFFFFF" transform="rotate(30)" />
        <path d="M0,0 L20,-40 L0,-45 L-20,-40 Z" fill="#FFFFFF" transform="rotate(60)" />
        <path d="M0,0 L20,-40 L0,-45 L-20,-40 Z" fill="#FFFFFF" transform="rotate(90)" />
        <path d="M0,0 L20,-40 L0,-45 L-20,-40 Z" fill="#FFFFFF" transform="rotate(120)" />
        <path d="M0,0 L20,-40 L0,-45 L-20,-40 Z" fill="#FFFFFF" transform="rotate(150)" />
        <path d="M0,0 L20,-40 L0,-45 L-20,-40 Z" fill="#FFFFFF" transform="rotate(180)" />
        <path d="M0,0 L20,-40 L0,-45 L-20,-40 Z" fill="#FFFFFF" transform="rotate(210)" />
        <path d="M0,0 L20,-40 L0,-45 L-20,-40 Z" fill="#FFFFFF" transform="rotate(240)" />
        <path d="M0,0 L20,-40 L0,-45 L-20,-40 Z" fill="#FFFFFF" transform="rotate(270)" />
        <path d="M0,0 L20,-40 L0,-45 L-20,-40 Z" fill="#FFFFFF" transform="rotate(300)" />
        <path d="M0,0 L20,-40 L0,-45 L-20,-40 Z" fill="#FFFFFF" transform="rotate(330)" />
      </g>
      
      <!-- 花心 -->
      <circle cx="0" cy="0" r="20" fill="#FFFFAA" />
      <circle cx="0" cy="0" r="15" fill="#FFFF88" />
    </g>
    
    <!-- 右側洋甘菊 -->
    <g transform="translate(120, 20) scale(0.85)">
      <!-- 花瓣 -->
      <g>
        <path d="M0,0 L20,-40 L0,-45 L-20,-40 Z" fill="#FFFFFF" transform="rotate(0)" />
        <path d="M0,0 L20,-40 L0,-45 L-20,-40 Z" fill="#FFFFFF" transform="rotate(30)" />
        <path d="M0,0 L20,-40 L0,-45 L-20,-40 Z" fill="#FFFFFF" transform="rotate(60)" />
        <path d="M0,0 L20,-40 L0,-45 L-20,-40 Z" fill="#FFFFFF" transform="rotate(90)" />
        <path d="M0,0 L20,-40 L0,-45 L-20,-40 Z" fill="#FFFFFF" transform="rotate(120)" />
        <path d="M0,0 L20,-40 L0,-45 L-20,-40 Z" fill="#FFFFFF" transform="rotate(150)" />
        <path d="M0,0 L20,-40 L0,-45 L-20,-40 Z" fill="#FFFFFF" transform="rotate(180)" />
        <path d="M0,0 L20,-40 L0,-45 L-20,-40 Z" fill="#FFFFFF" transform="rotate(210)" />
        <path d="M0,0 L20,-40 L0,-45 L-20,-40 Z" fill="#FFFFFF" transform="rotate(240)" />
        <path d="M0,0 L20,-40 L0,-45 L-20,-40 Z" fill="#FFFFFF" transform="rotate(270)" />
        <path d="M0,0 L20,-40 L0,-45 L-20,-40 Z" fill="#FFFFFF" transform="rotate(300)" />
        <path d="M0,0 L20,-40 L0,-45 L-20,-40 Z" fill="#FFFFFF" transform="rotate(330)" />
      </g>
      
      <!-- 花心 -->
      <circle cx="0" cy="0" r="20" fill="#FFFFAA" />
      <circle cx="0" cy="0" r="15" fill="#FFFF88" />
    </g>
    
    <!-- 莖和葉 -->
    <path d="M0,0 C0,50 -10,100 -20,150" stroke="#A0D8A0" stroke-width="3" fill="none" />
    <path d="M-120,30 C-120,80 -130,130 -140,180" stroke="#A0D8A0" stroke-width="3" fill="none" />
    <path d="M120,20 C120,70 130,120 140,170" stroke="#A0D8A0" stroke-width="3" fill="none" />
    
    <!-- 裝飾葉片 -->
    <path d="M-60,100 C-80,50 -110,30 -160,20 C-110,0 -80,-20 -60,30 Z" fill="#A0D8A0" transform="rotate(10)" />
    <path d="M60,120 C80,70 110,50 160,40 C110,20 80,0 60,50 Z" fill="#A0D8A0" transform="rotate(-20)" />
    <path d="M-30,150 C-50,100 -80,80 -130,70 C-80,50 -50,30 -30,80 Z" fill="#A0D8A0" transform="rotate(30)" />
  </g>
  
  <!-- 裝飾元素 -->
  <circle cx="120" cy="120" r="5" fill="#FFFFDD" opacity="0.6" />
  <circle cx="180" cy="220" r="8" fill="#FFFFDD" opacity="0.6" />
  <circle cx="680" cy="180" r="7" fill="#FFFFDD" opacity="0.6" />
  <circle cx="620" cy="420" r="6" fill="#FFFFDD" opacity="0.6" />
  <circle cx="220" cy="520" r="9" fill="#FFFFDD" opacity="0.6" />
</svg>