<svg width="18" height="19" viewBox="0 0 18 19" fill="none" xmlns="http://www.w3.org/2000/svg">
<path fill-rule="evenodd" clip-rule="evenodd" d="M18 8.58121V17.2484C18 18.0768 17.3284 18.7484 16.5 18.7484H12.75C11.9216 18.7484 11.25 18.0768 11.25 17.2484V13.4984C11.25 13.0842 10.9142 12.7484 10.5 12.7484H7.49999C7.08578 12.7484 6.74999 13.0842 6.74999 13.4984V17.2484C6.74999 18.0768 6.07842 18.7484 5.24999 18.7484H1.5C0.671572 18.7484 0 18.0768 0 17.2484V8.58121C-6.38961e-05 8.16149 0.17573 7.76094 0.484687 7.47684L7.98468 0.4006L7.99499 0.390288C8.56718 -0.130086 9.44123 -0.130086 10.0134 0.390288C10.0166 0.393956 10.0201 0.397402 10.0237 0.4006L17.5237 7.47684C17.8296 7.76242 18.0022 8.16278 18 8.58121Z" fill="#171212"/>
</svg>
