<svg width="21" height="18" viewBox="0 0 21 18" fill="none" xmlns="http://www.w3.org/2000/svg">
<path fill-rule="evenodd" clip-rule="evenodd" d="M15.1875 0C13.2516 0 11.5566 0.8325 10.5 2.23969C9.44344 0.8325 7.74844 0 5.8125 0C2.60384 0.00361657 0.00361657 2.60384 0 5.8125C0 12.375 9.73031 17.6869 10.1447 17.9062C10.3665 18.0256 10.6335 18.0256 10.8553 17.9062C11.2697 17.6869 21 12.375 21 5.8125C20.9964 2.60384 18.3962 0.00361657 15.1875 0ZM10.5 16.3875C8.78813 15.39 1.5 10.8459 1.5 5.8125C1.5031 3.43206 3.43206 1.5031 5.8125 1.5C7.63594 1.5 9.16687 2.47125 9.80625 4.03125C9.92182 4.31259 10.1959 4.49627 10.5 4.49627C10.8041 4.49627 11.0782 4.31259 11.1938 4.03125C11.8331 2.46844 13.3641 1.5 15.1875 1.5C17.5679 1.5031 19.4969 3.43206 19.5 5.8125C19.5 10.8384 12.21 15.3891 10.5 16.3875Z" fill="#8A6170"/>
</svg>
