<svg width="21" height="21" viewBox="0 0 21 21" fill="none" xmlns="http://www.w3.org/2000/svg">
<path fill-rule="evenodd" clip-rule="evenodd" d="M20.8168 4.16744C20.669 3.9906 20.4504 3.88841 20.2199 3.88845H4.53782L4.06246 1.27735C3.92809 0.537772 3.28404 0.000108654 2.53235 0H0.777689C0.348183 0 0 0.348183 0 0.777689C0 1.2072 0.348183 1.55538 0.777689 1.55538H2.52749L5.01221 15.1931C5.0854 15.5976 5.26414 15.9755 5.53034 16.2887C4.51055 17.2412 4.37628 18.8107 5.21944 19.9226C6.06261 21.0344 7.61007 21.3286 8.8024 20.6036C9.99474 19.8787 10.4457 18.3694 9.84652 17.1092H14.2619C14.0879 17.4734 13.9978 17.872 13.9984 18.2757C13.9984 19.779 15.2171 20.9976 16.7203 20.9976C18.2236 20.9976 19.4422 19.779 19.4422 18.2757C19.4422 16.7724 18.2236 15.5538 16.7203 15.5538H7.30736C6.93152 15.5537 6.60949 15.2849 6.54231 14.9151L6.23415 13.2207H17.5107C18.6382 13.2206 19.6043 12.4141 19.8058 11.3047L20.9879 4.80515C21.0284 4.57772 20.9657 4.34405 20.8168 4.16744ZM8.55458 18.2757C8.55458 18.92 8.03231 19.4422 7.38805 19.4422C6.74379 19.4422 6.22152 18.92 6.22152 18.2757C6.22152 17.6314 6.74379 17.1092 7.38805 17.1092C8.03231 17.1092 8.55458 17.6314 8.55458 18.2757ZM17.8869 18.2757C17.8869 18.92 17.3646 19.4422 16.7203 19.4422C16.0761 19.4422 15.5538 18.92 15.5538 18.2757C15.5538 17.6314 16.0761 17.1092 16.7203 17.1092C17.3646 17.1092 17.8869 17.6314 17.8869 18.2757ZM18.2757 11.0267C18.2083 11.3975 17.8847 11.6667 17.5077 11.6653H5.95127L4.8207 5.44383H19.2877L18.2757 11.0267Z" fill="#171212"/>
</svg>
