<svg width="20" height="20" viewBox="0 0 20 20" fill="none" xmlns="http://www.w3.org/2000/svg">
<path fill-rule="evenodd" clip-rule="evenodd" d="M19.7748 18.6875L14.9656 13.8793C17.8613 10.4028 17.5104 5.2637 14.1691 2.21308C10.8278 -0.837536 5.67802 -0.720499 2.47875 2.47877C-0.720515 5.67803 -0.837552 10.8278 2.21307 14.1691C5.26369 17.5104 10.4028 17.8613 13.8793 14.9656L18.6875 19.7748C18.9878 20.0751 19.4745 20.0751 19.7748 19.7748C20.075 19.4746 20.075 18.9878 19.7748 18.6875ZM1.55804 8.47362C1.55804 4.65426 4.65424 1.55805 8.4736 1.55805C12.293 1.55805 15.3892 4.65426 15.3892 8.47362C15.3892 12.293 12.293 15.3892 8.4736 15.3892C4.656 15.385 1.56227 12.2912 1.55804 8.47362Z" fill="#8A6170"/>
</svg>
